<?xml version="1.0" encoding="utf-8"?>
<!-- Generator: Adobe Illustrator 25.0.0, SVG Export Plug-In . SVG Version: 6.00 Build 0)  -->
<svg version="1.1" id="Layer_2" xmlns="http://www.w3.org/2000/svg" xmlns:xlink="http://www.w3.org/1999/xlink" x="0px" y="0px"
	 viewBox="0 0 300 300" style="enable-background:new 0 0 300 300;" xml:space="preserve">
<style type="text/css">
	.st0{fill:#490E67;}
</style>
<path class="st0" d="M121.38,183.15c-0.5,0.18,9.53-3.55,11.49-4.25v-10.48c4.51,1.98,9.33,3.11,14.35,3.11
	c5.03,0,9.85-1.13,14.36-3.11v10.48c1.39,0.5,11.2,4.13,10.98,4.04c22.05-9.2,37.84-31.08,38.08-72.61
	c0.14-23.41-10.27-44.2-26.37-56.83c-9.61-7.54-23.93-13.01-38.07-12.94c-13.23,0.07-26.24,5.3-35.35,12.66
	c-15.9,12.84-26.5,33.53-27.04,57.11C82.94,148.62,99.97,173.12,121.38,183.15z M121.32,103.36c15.08-10.25,24.88-21.62,25.83-33.5
	c3.76,26.33,40.83,40.3,40.83,43.92c0,29.69-18.25,53.75-40.76,53.75c-22.5,0-40.75-24.06-40.75-53.75
	C106.47,110.71,115.64,107.22,121.32,103.36z"/>
<path class="st0" d="M184.01,209.64c0-7.53,2.2-14.79,6.35-21.06l-13.94-4.23c0,0-2.23,26.36-29.42,26.42
	c-27.72,0.06-29.42-26.42-29.42-26.42l-24.51,7.43c-6.23,1.89-11.92,5.71-16.1,11.33c-4.17,5.63-6.18,12.19-6.18,18.69v33.09
	c0,3.21,1.23,6.42,3.68,8.87c2.45,2.45,5.66,3.68,8.88,3.68h106.05c-3.46-3.51-5.38-8.15-5.38-13.08V209.64z"/>
<path class="st0" d="M110.97,209.64c0-7.53-2.2-14.79-6.35-21.06l13.94-4.23c0,0,2.23,26.36,29.42,26.42
	c27.72,0.06,29.42-26.42,29.42-26.42l24.51,7.43c6.23,1.89,11.92,5.71,16.1,11.33c4.17,5.63,6.18,12.19,6.18,18.69v33.09
	c0,3.21-1.23,6.42-3.68,8.87c-2.45,2.45-5.66,3.68-8.88,3.68H105.6c3.46-3.51,5.38-8.15,5.38-13.08V209.64z"/>
</svg>
